<?xml version="1.0" encoding="utf-8"?><svg xml:space="preserve" viewBox="0 0 100 100" y="0" x="0" xmlns="http://www.w3.org/2000/svg" id="圖層_1" version="1.1" width="256px" height="256px" xmlns:xlink="http://www.w3.org/1999/xlink" style="width:100%;height:100%;background-size:initial;background-repeat-y:initial;background-repeat-x:initial;background-position-y:initial;background-position-x:initial;background-origin:initial;background-color:initial;background-clip:initial;background-attachment:initial;animation-play-state:paused" ><g class="ldl-scale" style="transform-origin:50% 50%;transform:rotate(0deg) scale(0.91, 0.91);animation-play-state:paused" ><g style="animation-play-state:paused" ><path fill="#f47e60" d="M68.627 71.773l-52.155 13.2V20.454L67.329 7.582a2.645 2.645 0 0 1 3.294 2.564v59.062a2.644 2.644 0 0 1-1.996 2.565z" style="fill:rgb(48, 157, 142);animation-play-state:paused" ></path>
<path fill="#e0e0e0" d="M68.26 10.512l12.904 7.527-51.788 13.168c-6.767.099-11.069-2.41-12.904-7.527L68.26 10.512z" style="fill:rgb(32, 70, 81);animation-play-state:paused" ></path>
<path fill="#e15b64" d="M81.531 79.3L29.376 92.5V27.981l50.857-12.872a2.645 2.645 0 0 1 3.294 2.564v59.062a2.646 2.646 0 0 1-1.996 2.565z" style="fill:rgb(85, 200, 157);animation-play-state:paused" ></path>
<path fill="#f8b26a" d="M16.473 20.454v64.519c1.86 6.274 7.015 7.467 12.904 7.527V27.981c-6.94.007-11.241-2.503-12.904-7.527z" style="fill:rgb(36, 112, 116);animation-play-state:paused" ></path></g>
<path fill="#fff" d="M67.193 43.357l-5.251 1.397-.961-2.291c-.211-.584-.795-.86-1.452-.685l-3.984 1.06c-.657.175-1.241.761-1.452 1.457l-.961 2.802-5.251 1.397c-1.295.344-2.344 1.703-2.344 3.035v12.404c0 1.332 1.049 2.133 2.344 1.788l19.312-5.137c1.295-.344 2.344-1.703 2.344-3.035V45.146c.001-1.333-1.049-2.133-2.344-1.789zm-9.655 16.695c-2.959.787-5.358-1.043-5.358-4.088s2.399-6.151 5.358-6.938c2.959-.787 5.358 1.043 5.358 4.088s-2.399 6.151-5.358 6.938z" style="fill:rgb(21, 33, 43);animation-play-state:paused" ></path>
<metadata xmlns:d="https://loading.io/stock/" style="animation-play-state:paused" ><d:name style="animation-play-state:paused" >album</d:name>
<d:tags style="animation-play-state:paused" >photo,camera,image,dslr,portofolio,album,books</d:tags>
<d:license style="animation-play-state:paused" >by</d:license>
<d:slug style="animation-play-state:paused" >oy06x</d:slug></metadata></g><!-- generated by https://loading.io/ --></svg>